<svg xmlns="http://www.w3.org/2000/svg" xmlns:xlink="http://www.w3.org/1999/xlink" version="1.1" width="100%" viewBox="0 -18.874 105.073 18.874">
<g id="page1">
<g transform="matrix(1 0 0 -1 0 0)">
<path d="M2.05188 10.55438H2.98844C3.1875 10.55438 3.28719 10.55438 3.28719 10.75376C3.28719 10.86344 3.1875 10.86344 3.00844 10.86344H2.13156C2.49031 12.27782 2.54 12.47688 2.54 12.53688C2.54 12.70626 2.42062 12.80563 2.25125 12.80563C2.22125 12.80563 1.9425 12.79563 1.85281 12.44719L1.46438 10.86344H.527812C.32875 10.86344 .229062 10.86344 .229062 10.67407C.229062 10.55438 .30875 10.55438 .508125 10.55438H1.38469C.6675 7.72563 .6275 7.556256 .6275 7.376881C.6275 6.839069 1.00594 6.460319 1.54406 6.460319C2.56 6.460319 3.12781 7.91469 3.12781 7.99438C3.12781 8.09407 3.04813 8.09407 3.00844 8.09407C2.91875 8.09407 2.90875 8.06407 2.85875 7.95469C2.43062 6.918756 1.9025 6.679694 1.56406 6.679694C1.35469 6.679694 1.255 6.809069 1.255 7.137819C1.255 7.376881 1.275 7.446569 1.315 7.61594L2.05188 10.55438Z"></path>
<path d="M13.2084 9.82719C13.35778 9.82719 13.54715 9.82719 13.54715 10.02657C13.54715 10.22563 13.35778 10.22563 13.2184 10.22563H7.251528C7.112153 10.22563 6.922778 10.22563 6.922778 10.02657C6.922778 9.82719 7.112153 9.82719 7.261528 9.82719H13.2084ZM13.2184 7.89469C13.35778 7.89469 13.54715 7.89469 13.54715 8.09407C13.54715 8.29344 13.35778 8.29344 13.2084 8.29344H7.261528C7.112153 8.29344 6.922778 8.29344 6.922778 8.09407C6.922778 7.89469 7.112153 7.89469 7.251528 7.89469H13.2184Z"></path>
<path d="M21.50291 1.4965L19.36135 8.96746L17.97666 7.3437L18.13604 7.1943L18.81354 7.99121L21.10447 .0021C21.43322 .0021 21.44322 .0021 21.52291 .2412L26.9917 17.534023C27.0413 17.683398 27.0413 17.723398 27.0413 17.733398C27.0413 17.842773 26.9617 17.932461 26.84229 17.932461C26.69291 17.932461 26.65291 17.803086 26.61322 17.673398L21.50291 1.4965Z"></path>
<path d="M26.84375 17.734376H42.1875" stroke="#000" fill="none" stroke-width=".398" stroke-miterlimit="10"></path>
<path d="M33.52856 14.70482C33.59825 14.78857 33.59825 14.80263 33.59825 14.98388H31.77106C31.492 14.98388 31.41512 14.99075 31.16418 15.01169C30.80137 15.03982 30.78731 15.08857 30.766373 15.207H30.529497L30.285122 13.7145H30.52231C30.536372 13.81919 30.60606 14.2795 30.717622 14.34919C30.77356 14.39107 31.33856 14.39107 31.44325 14.39107H32.96356C32.74043 14.09794 32.38481 13.66575 32.23825 13.47044C31.3245 12.27075 31.24075 11.161691 31.24075 10.750129C31.24075 10.673254 31.24075 10.352629 31.56856 10.352629C31.90356 10.352629 31.90356 10.666379 31.90356 10.757004V11.036066C31.90356 12.38919 32.18231 13.01013 32.48231 13.38669L33.52856 14.70482Z"></path>
<path d="M36.64178 14.68388C36.70459 14.93513 36.72553 15.00482 37.36709 15.00482C37.58334 15.00482 37.65303 15.00482 37.65303 15.15825C37.65303 15.16513 37.64616 15.25607 37.53459 15.25607C37.37397 15.25607 37.18584 15.242 37.01834 15.23513C36.84397 15.22794 36.63491 15.22794 36.46053 15.22794C36.31397 15.22794 36.12553 15.23513 35.97897 15.23513C35.83272 15.23513 35.66522 15.25607 35.52584 15.25607C35.48397 15.25607 35.37928 15.25607 35.37928 15.10263C35.37928 15.00482 35.46303 15.00482 35.60241 15.00482C35.60928 15.00482 35.74209 15.00482 35.86741 14.99075C36.01397 14.977 36.02803 14.96294 36.02803 14.89325C36.02803 14.87919 36.02803 14.8445 35.99991 14.73982L35.07241 11.036066C35.00959 10.798879 34.99553 10.743254 34.458656 10.743254C34.339906 10.743254 34.249281 10.743254 34.249281 10.596691C34.249281 10.492004 34.333031 10.492004 34.458656 10.492004H37.96709C38.14147 10.492004 38.14834 10.498879 38.20428 10.631379C38.27397 10.819816 38.79709 12.17294 38.79709 12.22888C38.79709 12.24982 38.78303 12.32638 38.67834 12.32638C38.59459 12.32638 38.58084 12.29169 38.53897 12.17982C38.27397 11.51732 37.96709 10.743254 36.69053 10.743254H35.90241C35.68616 10.743254 35.67928 10.750129 35.67928 10.812941C35.67928 10.819816 35.67928 10.854816 35.70709 10.959191L36.64178 14.68388Z"></path>
<path d="M28.039063 9.0625H40.9922" stroke="#000" fill="none" stroke-width=".398" stroke-miterlimit="10"></path>
<path d="M31.5615 4.40335H31.32431C31.30338 4.24991 31.23369 3.838351 31.14275 3.768664C31.08713 3.726789 30.54994 3.726789 30.45244 3.726789H29.169C29.90119 4.37554 30.14556 4.57085 30.564 4.89866C31.08025 5.31023 31.5615 5.74273 31.5615 6.40523C31.5615 7.24929 30.82213 7.76523 29.92931 7.76523C29.06431 7.76523 28.478376 7.15866 28.478376 6.51679C28.478376 6.16116 28.778376 6.12616 28.848064 6.12616C29.015564 6.12616 29.21775 6.24491 29.21775 6.49585C29.21775 6.62148 29.169 6.86554 28.806189 6.86554C29.022439 7.36085 29.49681 7.51429 29.82463 7.51429C30.52213 7.51429 30.88494 6.97023 30.88494 6.40523C30.88494 5.79835 30.45244 5.3171 30.229 5.06616L28.548064 3.405851C28.478376 3.343351 28.478376 3.329289 28.478376 3.133976H31.35213L31.5615 4.40335Z"></path>
<path d="M32.386597 2.01085C32.358784 1.90648 32.358784 1.87148 32.358784 1.8646C32.358784 1.71116 32.484409 1.64148 32.595972 1.64148C32.846909 1.64148 32.902847 1.87148 32.930659 1.99023C32.944722 2.02491 33.0841 2.583039 33.2516 3.266476C33.46785 3.119914 33.74691 3.064289 33.99785 3.064289C34.59785 3.064289 34.98847 3.552414 35.00222 3.566476C35.13472 3.085226 35.61597 3.064289 35.72066 3.064289C35.97191 3.064289 36.14628 3.217726 36.27191 3.433976C36.42535 3.705851 36.51597 4.103351 36.51597 4.131476C36.51597 4.2221 36.42535 4.2221 36.40441 4.2221C36.3066 4.2221 36.29972 4.19429 36.25097 4.005851C36.16722 3.671164 36.03472 3.259601 35.7416 3.259601C35.56035 3.259601 35.5116 3.413039 35.5116 3.601164C35.5116 3.719914 35.56722 3.970851 35.61597 4.15241C35.66503 4.34054 35.73472 4.62648 35.76941 4.78023L35.93003 5.40085C35.97191 5.57523 36.04847 5.8821 36.04847 5.9171C36.04847 6.05648 35.93691 6.14023 35.81847 6.14023C35.7416 6.14023 35.6091 6.10523 35.53253 5.97273C35.5116 5.93085 35.45566 5.70773 35.42066 5.56835L35.27441 4.98929L35.05816 4.117414C35.00941 3.943039 35.00941 3.928976 34.9466 3.838351C34.73035 3.531476 34.42347 3.259601 34.02566 3.259601C33.45378 3.259601 33.45378 3.754601 33.45378 3.880226C33.45378 4.061789 33.47472 4.15241 33.57253 4.52898C33.64222 4.83585 33.65628 4.8846 33.72597 5.15679L33.82347 5.54741C33.85847 5.69366 33.92816 5.95898 33.92816 5.98679C33.92816 6.11241 33.83066 6.20991 33.69097 6.20991C33.44003 6.20991 33.37722 5.96585 33.35628 5.8821L32.386597 2.01085ZM40.56464 5.70773C40.59277 5.81241 40.59277 5.8471 40.59277 5.85429C40.59277 6.00773 40.46714 6.07741 40.35558 6.07741C40.19496 6.07741 40.06246 5.94491 40.03464 5.81241C39.91589 6.00085 39.67902 6.20991 39.31621 6.20991C38.44433 6.20991 37.53058 5.27523 37.53058 4.27773C37.53058 3.559601 38.01871 3.133976 38.59089 3.133976C38.91152 3.133976 39.21839 3.294289 39.46277 3.510539L39.30933 2.882726C39.23246 2.589914 39.18371 2.401476 38.91871 2.164601C38.61183 1.90648 38.31183 1.90648 38.13746 1.90648C37.81652 1.90648 37.72589 1.92741 37.60027 1.95523C37.77464 2.03898 37.82339 2.206164 37.82339 2.303976C37.82339 2.471476 37.69089 2.562101 37.55152 2.562101C37.35621 2.562101 37.15402 2.401476 37.15402 2.136476C37.15402 1.71804 37.75371 1.71116 38.14433 1.71116C39.23933 1.71116 39.70683 2.268976 39.80433 2.666789L40.56464 5.70773ZM39.60214 4.061789C39.57433 3.957101 39.57433 3.943039 39.45558 3.803664C39.21152 3.510539 38.87683 3.329289 38.61183 3.329289C38.25589 3.329289 38.08871 3.629289 38.08871 3.991789C38.08871 4.29866 38.27683 5.07991 38.45839 5.38679C38.75121 5.87523 39.07902 6.0146 39.31621 6.0146C39.80433 6.0146 39.93683 5.49148 39.93683 5.42179C39.93683 5.40773 39.93683 5.39398 39.91589 5.3171L39.60214 4.061789Z"></path>
<path d="M43.97014 6.759381C43.99014 6.709381 43.99982 6.649694 43.99982 6.590006C43.99982 5.912506 43.68107 5.33469 43.24295 4.85657C43.22295 4.82688 43.20295 4.78688 43.20295 4.75719C43.20295 4.71719 43.25295 4.65751 43.30264 4.65751C43.44201 4.65751 43.71107 5.03594 43.84045 5.25501C44.07951 5.663444 44.2092 6.131569 44.2092 6.600006C44.2092 7.048131 44.07951 7.63594 43.5617 7.63594C43.26295 7.63594 43.043573 7.406881 43.043573 7.107819C43.043573 6.769381 43.30264 6.580006 43.5717 6.580006C43.72107 6.580006 43.88045 6.629694 43.97014 6.759381ZM43.49201 10.85344C43.24295 10.82344 43.043573 10.59438 43.043573 10.34532S43.24295 9.80751 43.5517 9.80751C43.82076 9.80751 44.09951 10.01657 44.09951 10.32532C44.09951 10.58438 43.90045 10.86344 43.5817 10.86344C43.5517 10.86344 43.5217 10.85344 43.49201 10.85344Z"></path>
<path d="M52.93586 10.27563C52.93586 10.81344 52.6768 10.97282 52.49743 10.97282C52.24836 10.97282 52.0093 10.71376 52.0093 10.49469C52.0093 10.36532 52.0593 10.30532 52.16868 10.19594C52.37805 9.99657 52.50743 9.73782 52.50743 9.37907C52.50743 8.96063 51.89993 6.679694 50.7343 6.679694C50.22649 6.679694 49.99743 7.028131 49.99743 7.546256C49.99743 8.10407 50.26618 8.83126 50.57493 9.65813C50.64461 9.82719 50.69461 9.96688 50.69461 10.15594C50.69461 10.60438 50.37586 10.97282 49.87774 10.97282C48.941489 10.97282 48.562739 9.52844 48.562739 9.43876C48.562739 9.33938 48.662426 9.33938 48.682426 9.33938C48.782114 9.33938 48.792114 9.35907 48.841801 9.51844C49.130551 10.52469 49.55899 10.75376 49.84774 10.75376C49.92743 10.75376 50.0968 10.75376 50.0968 10.43501C50.0968 10.18594 49.99743 9.91688 49.92743 9.73782C49.4893 8.58219 49.35961 8.12407 49.35961 7.69563C49.35961 6.619694 50.23649 6.460319 50.69461 6.460319C52.36805 6.460319 52.93586 9.75751 52.93586 10.27563Z"></path>
<path d="M56.70203 7.29998C56.70203 8.06717 56.61141 8.61842 56.29047 9.10655C56.07422 9.42748 55.64172 9.70623 55.08391 9.70623C53.465784 9.70623 53.465784 7.80217 53.465784 7.29998C53.465784 6.7978 53.465784 4.935609 55.08391 4.935609C56.70203 4.935609 56.70203 6.7978 56.70203 7.29998ZM55.08391 5.130922C54.76297 5.130922 54.33766 5.319047 54.19797 5.890922C54.100471 6.30248 54.100471 6.87467 54.100471 7.39061C54.100471 7.89998 54.100471 8.42998 54.20516 8.81373C54.35141 9.36467 54.79797 9.51123 55.08391 9.51123C55.46047 9.51123 55.82328 9.28092 55.94891 8.87623C56.06047 8.49967 56.06735 7.99748 56.06735 7.39061C56.06735 6.87467 56.06735 6.35842 55.97672 5.919047C55.83703 5.284359 55.36297 5.130922 55.08391 5.130922Z"></path>
<path d="M67.18343 9.82719C67.33281 9.82719 67.52218 9.82719 67.52218 10.02657C67.52218 10.22563 67.33281 10.22563 67.19343 10.22563H61.22656C61.087185 10.22563 60.89781 10.22563 60.89781 10.02657C60.89781 9.82719 61.087185 9.82719 61.23656 9.82719H67.18343ZM67.19343 7.89469C67.33281 7.89469 67.52218 7.89469 67.52218 8.09407C67.52218 8.29344 67.33281 8.29344 67.18343 8.29344H61.23656C61.087185 8.29344 60.89781 8.29344 60.89781 8.09407C60.89781 7.89469 61.087185 7.89469 61.22656 7.89469H67.19343Z"></path>
<path d="M75.47786 2.0395L73.3363 9.51046L71.95161 7.8867L72.11099 7.7373L72.78849 8.53421L75.07943 .5451C75.40818 .5451 75.41818 .5451 75.49786 .7842L80.9666 18.077023C81.0163 18.226398 81.0163 18.266398 81.0163 18.276398C81.0163 18.385773 80.9366 18.47546 80.81724 18.47546C80.66786 18.47546 80.62786 18.346085 80.58818 18.216398L75.47786 2.0395Z"></path>
<path d="M80.816405 18.277345H105.0742" stroke="#000" fill="none" stroke-width=".398" stroke-miterlimit="10"></path>
<path d="M85.53653 11.76138H85.29935C85.27841 11.60794 85.20872 11.196379 85.11778 11.126691C85.06216 11.084816 84.52497 11.084816 84.42747 11.084816H83.14403C83.87622 11.73357 84.1206 11.92888 84.53903 12.25669C85.05528 12.66825 85.53653 13.10075 85.53653 13.76325C85.53653 14.60732 84.79716 15.12325 83.90434 15.12325C83.03934 15.12325 82.453407 14.51669 82.453407 13.87482C82.453407 13.51919 82.753407 13.48419 82.823095 13.48419C82.990595 13.48419 83.19278 13.60294 83.19278 13.85388C83.19278 13.9795 83.14403 14.22357 82.78122 14.22357C82.99747 14.71888 83.47184 14.87232 83.79966 14.87232C84.49716 14.87232 84.85997 14.32825 84.85997 13.76325C84.85997 13.15638 84.42747 12.67513 84.20403 12.42419L82.523095 10.763879C82.453407 10.701379 82.453407 10.687316 82.453407 10.492004H85.32716L85.53653 11.76138Z"></path>
<path d="M82.015625 9.0625H85.98438" stroke="#000" fill="none" stroke-width=".398" stroke-miterlimit="10"></path>
<path d="M85.7456 7.34679C85.81528 7.43054 85.81528 7.4446 85.81528 7.62585H83.98809C83.70903 7.62585 83.63216 7.63273 83.38122 7.65366C83.01841 7.68179 83.004345 7.73054 82.983407 7.84898H82.746533L82.502158 6.35648H82.739345C82.753407 6.46116 82.823095 6.92148 82.934658 6.99116C82.990595 7.03304 83.55559 7.03304 83.66028 7.03304H85.18059C84.95747 6.73991 84.60185 6.30773 84.45528 6.11241C83.54153 4.91273 83.45778 3.803664 83.45778 3.392101C83.45778 3.315226 83.45778 2.994601 83.7856 2.994601C84.1206 2.994601 84.1206 3.308351 84.1206 3.398976V3.678039C84.1206 5.03116 84.39934 5.6521 84.69934 6.02866L85.7456 7.34679Z"></path>
<path d="M89.48191 10.06626C89.53191 10.27563 89.63129 10.65407 89.63129 10.70376C89.63129 10.87313 89.51191 10.97282 89.34254 10.97282C89.31254 10.97282 89.03379 10.96282 88.9441 10.61438L87.509724 4.84657C87.479724 4.72719 87.479724 4.70719 87.479724 4.68719C87.479724 4.53782 87.589411 4.41844 87.758786 4.41844C87.967849 4.41844 88.087536 4.59782 88.107224 4.62751C88.147224 4.71719 88.2766 5.23532 88.65535 6.769381C88.9741 6.500319 89.42222 6.460319 89.6216 6.460319C90.31879 6.460319 90.70722 6.908756 90.94629 7.187506C91.03597 6.739381 91.40441 6.460319 91.84285 6.460319C92.1916 6.460319 92.42066 6.689694 92.58004 7.008444C92.74941 7.366881 92.87879 7.97469 92.87879 7.99438C92.87879 8.09407 92.7891 8.09407 92.75941 8.09407C92.65972 8.09407 92.64972 8.05438 92.61972 7.91469C92.45035 7.267194 92.27129 6.679694 91.86285 6.679694C91.59379 6.679694 91.56379 6.938444 91.56379 7.137819C91.56379 7.356881 91.68347 7.82501 91.76316 8.17376L92.04191 9.24969C92.07191 9.39907 92.1716 9.77751 92.21129 9.92688C92.26129 10.15594 92.36066 10.53469 92.36066 10.59438C92.36066 10.77376 92.22129 10.86344 92.07191 10.86344C92.02222 10.86344 91.76316 10.85344 91.68347 10.51469L91.21535 8.65188C91.09566 8.15376 90.98629 7.73532 90.95629 7.63594C90.94629 7.58594 90.46816 6.679694 89.66129 6.679694C89.16316 6.679694 88.9241 7.008444 88.9241 7.546256C88.9241 7.83501 88.99379 8.11407 89.06379 8.39282L89.48191 10.06626ZM97.8763 10.32532C97.886 10.38501 97.906 10.43501 97.906 10.50469C97.906 10.67407 97.7866 10.77376 97.6172 10.77376C97.5175 10.77376 97.2485 10.70376 97.2088 10.34532C97.02941 10.71376 96.68066 10.97282 96.28222 10.97282C95.14691 10.97282 93.9116 9.57844 93.9116 8.14376C93.9116 7.157819 94.5191 6.570006 95.23629 6.570006C95.8241 6.570006 96.29222 7.038131 96.39191 7.147819L96.40191 7.137819C96.19285 6.251256 96.07316 5.842819 96.07316 5.822819C96.03347 5.733131 95.69472 4.74719 94.63879 4.74719C94.44941 4.74719 94.12066 4.75719 93.84191 4.84657C94.14066 4.93626 94.25035 5.19532 94.25035 5.36469C94.25035 5.52407 94.14066 5.713444 93.8716 5.713444C93.65254 5.713444 93.33379 5.53407 93.33379 5.13563C93.33379 4.72719 93.70254 4.52782 94.65879 4.52782C95.90379 4.52782 96.62097 5.30501 96.77035 5.902506L97.8763 10.32532ZM96.58129 7.84501C96.52129 7.58594 96.29222 7.336881 96.07316 7.147819C95.8641 6.968444 95.55504 6.789069 95.26629 6.789069C94.76816 6.789069 94.61879 7.307194 94.61879 7.70563C94.61879 8.18376 94.90785 9.35907 95.1766 9.86719C95.44566 10.35532 95.87379 10.75376 96.29222 10.75376C96.94972 10.75376 97.0891 9.94688 97.0891 9.89719C97.0891 9.84719 97.06941 9.78751 97.05941 9.74751L96.58129 7.84501Z"></path>
<path d="M102.0153 12.59657C102.1046 12.95501 102.1346 13.06469 103.0709 13.06469C103.37 13.06469 103.4496 13.06469 103.4496 13.25407C103.4496 13.37344 103.34 13.37344 103.2903 13.37344C102.9615 13.37344 102.1446 13.34376 101.8159 13.34376C101.5171 13.34376 100.79 13.37344 100.4912 13.37344C100.4212 13.37344 100.3018 13.37344 100.3018 13.17438C100.3018 13.06469 100.3915 13.06469 100.5806 13.06469C100.6006 13.06469 100.79 13.06469 100.9593 13.04469C101.1387 13.02501 101.2281 13.01501 101.2281 12.88532C101.2281 12.84563 101.2184 12.81563 101.1884 12.69626L99.8537 7.346881C99.754 6.958444 99.734 6.878756 98.9471 6.878756C98.7778 6.878756 98.6781 6.878756 98.6781 6.679694C98.6781 6.570006 98.7678 6.570006 98.9471 6.570006H103.559C103.7981 6.570006 103.8081 6.570006 103.8681 6.739381L104.655 8.89094C104.6946 9.00063 104.6946 9.02032 104.6946 9.03032C104.6946 9.07032 104.665 9.14001 104.5753 9.14001S104.4756 9.09032 104.4059 8.93094C104.0671 8.01438 103.6287 6.878756 101.9056 6.878756H100.9693C100.8296 6.878756 100.81 6.878756 100.75 6.888756C100.6506 6.898756 100.6206 6.908756 100.6206 6.988444C100.6206 7.018131 100.6206 7.038131 100.6703 7.217506L102.0153 12.59657Z"></path>
</g>
</g>
</svg>